<svg xmlns="http://www.w3.org/2000/svg" xmlns:xlink="http://www.w3.org/1999/xlink" id="Layer_1" x="0px" y="0px" viewBox="0 0 348 104" style="enable-background:new 0 0 348 104;" xml:space="preserve"><style type="text/css">	.st0{fill:#9C8856;}</style><g>	<path class="st0" d="M39.7,40.4c0,14-11.4,25.3-25.6,25.3V15.1C28.3,15.1,39.7,26.4,39.7,40.4z"></path>	<path class="st0" d="M73,63.6c0,14-11.4,25.3-25.6,25.3V38.2C61.6,38.2,73,49.6,73,63.6z"></path>	<rect x="14.2" y="69.7" class="st0" width="25.6" height="19.3"></rect>	<rect x="47.5" y="15.1" class="st0" width="25.6" height="19.3"></rect></g><g>	<g>		<g>			<path class="st0" d="M90.1,55.4V17.2h9.6c4.9,0,8.4,1,10.3,3c1.9,2,2.9,5.6,2.9,10.8v10.5c0,5.2-1,8.8-2.9,10.8    c-1.9,2-5.4,3-10.3,3H90.1z M93.9,51.9h5.1c2.2,0,4-0.2,5.2-0.5c1.3-0.4,2.2-0.9,2.9-1.7c0.7-0.8,1.1-1.7,1.4-2.9    c0.3-1.1,0.4-2.9,0.4-5.4V31.2c0-2.4-0.1-4.2-0.4-5.4c-0.3-1.1-0.7-2.1-1.4-2.9c-0.7-0.8-1.7-1.3-2.9-1.7c-1.3-0.4-3-0.5-5.2-0.5    h-5.1V51.9z"></path>			<path class="st0" d="M131.7,16.7c3.5,0,6,1,7.6,3c1.6,2,2.3,5.3,2.3,9.9V43c0,4.6-0.8,7.9-2.3,9.9c-1.6,2-4.1,3-7.6,3h-3.3    c-3.5,0-6-1-7.6-3c-1.6-2-2.3-5.3-2.3-9.9V29.7c0-4.6,0.8-7.9,2.3-9.9c1.6-2,4.1-3,7.6-3H131.7z M131.2,20.5h-2.3    c-2.4,0-4.1,0.6-5,1.8c-0.9,1.2-1.4,3.7-1.4,7.4V43c0,3.7,0.5,6.1,1.4,7.3c0.9,1.2,2.6,1.8,5,1.8h2.3c2.4,0,4.1-0.6,5-1.8    c0.9-1.2,1.4-3.7,1.4-7.3V29.7c0-3.7-0.5-6.1-1.4-7.4C135.3,21.1,133.6,20.5,131.2,20.5z"></path>			<path class="st0" d="M171,55.4l-6.4-30.7l-6.9,30.7h-4.4l-8.3-38.3h3.8l6.8,33.4l7.1-33.4h3.8l6.8,33.4l7.1-33.4h3.8l-8.8,38.3    H171z"></path>			<path class="st0" d="M187.9,55.4V17.2h5.6l14.2,34v-34h3.7v38.3h-5.8l-14-33.4v33.4H187.9z"></path>			<path class="st0" d="M223.1,55.4V20.9h-8.2v-3.7h20.2v3.7h-8.2v34.5H223.1z"></path>			<path class="st0" d="M251.4,16.7c3.5,0,6,1,7.6,3c1.6,2,2.3,5.3,2.3,9.9V43c0,4.6-0.8,7.9-2.3,9.9c-1.6,2-4.1,3-7.6,3h-3.3    c-3.5,0-6-1-7.6-3c-1.6-2-2.3-5.3-2.3-9.9V29.7c0-4.6,0.8-7.9,2.3-9.9c1.6-2,4.1-3,7.6-3H251.4z M250.9,20.5h-2.3    c-2.4,0-4.1,0.6-5,1.8c-0.9,1.2-1.4,3.7-1.4,7.4V43c0,3.7,0.5,6.1,1.4,7.3c0.9,1.2,2.6,1.8,5,1.8h2.3c2.4,0,4.1-0.6,5-1.8    c0.9-1.2,1.4-3.7,1.4-7.3V29.7c0-3.7-0.5-6.1-1.4-7.4C255,21.1,253.4,20.5,250.9,20.5z"></path>			<path class="st0" d="M290.7,55.4l-6.4-30.7l-6.9,30.7h-4.4l-8.3-38.3h3.8l6.8,33.4l7.1-33.4h3.8l6.8,33.4l7.1-33.4h3.8l-8.8,38.3    H290.7z"></path>			<path class="st0" d="M307.6,55.4V17.2h5.6l14.2,34v-34h3.7v38.3h-5.8l-14-33.4v33.4H307.6z"></path>		</g>	</g>	<g>		<path d="M101.9,78.9l2.1-10.1h2.3l-3.1,13.4H101l-2.5-9.8l-2.6,9.8h-2.2l-3.1-13.4h2.3l2.1,10.1l2.6-10.1h1.9L101.9,78.9z"></path>		<path d="M110.5,82.2h-2.3V68.8h2.3V82.2z"></path>		<path d="M115.7,80.3h6.1v1.9h-8.4V68.8h2.3V80.3z"></path>		<path d="M125.9,80.3h6.1v1.9h-8.4V68.8h2.3V80.3z"></path>		<path d="M136.2,82.2h-2.3V68.8h2.3V82.2z"></path>		<path d="M149.7,82.2h-2.3l-6-9.5v9.5H139V68.8h2.3l6,9.5v-9.5h2.3V82.2z"></path>		<path d="M162.7,80.4c-0.1,0.2-0.3,0.4-0.6,0.6c-0.3,0.2-0.6,0.4-1,0.6s-0.9,0.4-1.4,0.5c-0.6,0.1-1.2,0.2-2,0.2   c-0.8,0-1.6-0.1-2.3-0.4c-0.7-0.3-1.3-0.7-1.8-1.3c-0.5-0.5-0.9-1.2-1.2-2c-0.3-0.8-0.4-1.7-0.4-2.7v-0.9c0-1,0.1-1.9,0.4-2.7   c0.3-0.8,0.6-1.5,1.1-2s1-1,1.7-1.3s1.5-0.4,2.3-0.4c0.8,0,1.5,0.1,2.1,0.3c0.6,0.2,1.1,0.5,1.5,0.9s0.7,0.8,1,1.4   c0.2,0.5,0.4,1.1,0.5,1.7h-2.3c-0.1-0.3-0.1-0.7-0.3-1c-0.1-0.3-0.3-0.5-0.5-0.8c-0.2-0.2-0.5-0.4-0.8-0.5   c-0.3-0.1-0.7-0.2-1.2-0.2c-0.5,0-1,0.1-1.4,0.3c-0.4,0.2-0.7,0.5-1,0.9c-0.3,0.4-0.5,0.9-0.6,1.4c-0.1,0.6-0.2,1.2-0.2,1.9v0.9   c0,0.7,0.1,1.4,0.2,2c0.2,0.6,0.4,1,0.7,1.4c0.3,0.4,0.7,0.7,1.1,0.9c0.4,0.2,0.9,0.3,1.4,0.3c0.4,0,0.7,0,1-0.1s0.5-0.1,0.7-0.2   c0.2-0.1,0.4-0.2,0.5-0.3c0.1-0.1,0.2-0.2,0.3-0.3v-2.6h-2.8v-1.8h5.1V80.4z"></path>		<path d="M165.2,82.2V68.8h4c0.9,0,1.7,0.2,2.5,0.5c0.7,0.3,1.4,0.7,1.9,1.3s0.9,1.2,1.2,2c0.3,0.8,0.4,1.7,0.4,2.6v0.7   c0,1-0.1,1.8-0.4,2.6c-0.3,0.8-0.7,1.4-1.2,2s-1.2,1-1.9,1.3c-0.8,0.3-1.6,0.5-2.5,0.5H165.2z M167.5,70.7v9.7h1.5   c0.6,0,1.2-0.1,1.7-0.3c0.5-0.2,0.9-0.5,1.2-0.9c0.3-0.4,0.6-0.9,0.7-1.4c0.2-0.6,0.2-1.2,0.2-1.9v-0.7c0-1.5-0.3-2.6-0.9-3.3   c-0.6-0.8-1.5-1.1-2.8-1.1H167.5z"></path>		<path d="M188.2,75.8c0,1-0.1,1.9-0.4,2.7c-0.3,0.8-0.6,1.5-1.1,2.1c-0.5,0.6-1.1,1-1.7,1.3c-0.7,0.3-1.4,0.5-2.3,0.5   c-0.8,0-1.6-0.2-2.3-0.5c-0.7-0.3-1.3-0.7-1.8-1.3c-0.5-0.6-0.9-1.2-1.1-2.1c-0.3-0.8-0.4-1.7-0.4-2.7v-0.7c0-1,0.1-1.9,0.4-2.7   c0.3-0.8,0.7-1.5,1.1-2.1c0.5-0.6,1.1-1,1.8-1.3c0.7-0.3,1.4-0.5,2.3-0.5c0.8,0,1.6,0.2,2.3,0.5c0.7,0.3,1.3,0.7,1.8,1.3   c0.5,0.6,0.9,1.2,1.1,2.1s0.4,1.7,0.4,2.7V75.8z M185.9,75.1c0-0.7-0.1-1.4-0.2-2c-0.1-0.6-0.4-1.1-0.6-1.4   c-0.3-0.4-0.6-0.7-1-0.9s-0.9-0.3-1.4-0.3c-0.5,0-0.9,0.1-1.3,0.3c-0.4,0.2-0.7,0.5-1,0.9c-0.3,0.4-0.5,0.9-0.6,1.4   s-0.2,1.2-0.2,2v0.7c0,0.7,0.1,1.4,0.2,2s0.4,1.1,0.6,1.4c0.3,0.4,0.6,0.7,1,0.9c0.4,0.2,0.9,0.3,1.3,0.3c1,0,1.8-0.4,2.4-1.2   c0.6-0.8,0.8-1.9,0.8-3.4V75.1z"></path>		<path d="M201.2,82.2h-2.3l-6-9.5v9.5h-2.3V68.8h2.3l6,9.5v-9.5h2.3V82.2z"></path>		<path d="M218.8,77.8c-0.1,0.7-0.2,1.3-0.5,1.8s-0.6,1-1,1.4s-1,0.7-1.6,0.9c-0.6,0.2-1.4,0.3-2.2,0.3s-1.6-0.1-2.2-0.4   c-0.7-0.3-1.2-0.7-1.7-1.3s-0.8-1.2-1.1-2c-0.3-0.8-0.4-1.7-0.4-2.6V75c0-1,0.1-1.8,0.4-2.6c0.3-0.8,0.6-1.4,1.1-2s1.1-1,1.7-1.3   c0.7-0.3,1.4-0.5,2.3-0.5c0.8,0,1.5,0.1,2.1,0.3c0.6,0.2,1.1,0.5,1.6,1c0.4,0.4,0.8,0.9,1,1.5c0.2,0.6,0.4,1.2,0.5,1.8h-2.3   c0-0.4-0.1-0.8-0.3-1.1c-0.1-0.3-0.3-0.6-0.5-0.9s-0.5-0.4-0.8-0.5c-0.3-0.1-0.7-0.2-1.2-0.2c-0.5,0-1,0.1-1.4,0.3s-0.7,0.5-1,0.9   s-0.5,0.8-0.6,1.4s-0.2,1.2-0.2,1.9V76c0,0.7,0.1,1.3,0.2,1.8c0.1,0.5,0.3,1,0.5,1.4s0.6,0.7,0.9,0.9c0.4,0.2,0.8,0.3,1.4,0.3   c0.5,0,0.9-0.1,1.3-0.2c0.3-0.1,0.6-0.3,0.9-0.5c0.2-0.2,0.4-0.5,0.5-0.8c0.1-0.3,0.2-0.7,0.3-1.1H218.8z"></path>		<path d="M223.2,80.3h6.1v1.9h-8.4V68.8h2.3V80.3z"></path>		<path d="M240.7,68.8v9c0,0.8-0.1,1.4-0.4,2s-0.6,1.1-1.1,1.4c-0.5,0.4-1,0.7-1.6,0.9c-0.6,0.2-1.3,0.3-2,0.3c-0.7,0-1.4-0.1-2-0.3   c-0.6-0.2-1.1-0.5-1.6-0.9c-0.4-0.4-0.8-0.9-1-1.4c-0.3-0.6-0.4-1.2-0.4-2v-9h2.3v9c0,0.5,0.1,0.9,0.2,1.2   c0.1,0.3,0.3,0.6,0.5,0.9c0.2,0.2,0.5,0.4,0.8,0.5c0.3,0.1,0.7,0.2,1.1,0.2s0.8-0.1,1.1-0.2c0.3-0.1,0.6-0.3,0.8-0.5   c0.2-0.2,0.4-0.5,0.5-0.9c0.1-0.3,0.2-0.8,0.2-1.2v-9H240.7z"></path>		<path d="M243.1,82.2V68.8h4.6c0.7,0,1.4,0.1,1.9,0.2s1.1,0.4,1.5,0.7c0.4,0.3,0.7,0.7,0.9,1.1c0.2,0.5,0.3,1,0.3,1.6   c0,0.6-0.2,1.2-0.5,1.7s-0.8,0.9-1.5,1.1c0.4,0.1,0.7,0.3,1,0.5s0.5,0.4,0.7,0.7c0.2,0.3,0.3,0.6,0.4,0.9s0.1,0.7,0.1,1   c0,0.6-0.1,1.2-0.3,1.7c-0.2,0.5-0.5,0.9-0.9,1.2c-0.4,0.3-0.9,0.6-1.5,0.7c-0.6,0.2-1.2,0.2-1.9,0.2H243.1z M245.5,74.4h2.3   c0.7,0,1.3-0.2,1.7-0.5c0.4-0.3,0.6-0.8,0.6-1.4c0-0.7-0.2-1.1-0.6-1.4c-0.4-0.3-1-0.4-1.8-0.4h-2.3V74.4z M245.5,76.1v4.2h2.6   c0.4,0,0.7,0,1-0.1c0.3-0.1,0.5-0.2,0.7-0.4c0.2-0.2,0.3-0.4,0.4-0.6c0.1-0.3,0.1-0.5,0.1-0.8c0-0.7-0.2-1.2-0.5-1.6   s-0.9-0.6-1.7-0.6H245.5z"></path>		<path d="M256.9,81.6c0,0.3,0,0.6-0.1,1c-0.1,0.3-0.2,0.7-0.3,1s-0.3,0.6-0.6,0.9s-0.5,0.5-0.7,0.8l-1.2-0.7   c0.1-0.2,0.3-0.4,0.4-0.6c0.1-0.2,0.2-0.4,0.3-0.7c0.1-0.2,0.1-0.5,0.2-0.7c0-0.3,0.1-0.5,0.1-0.8V80h2L256.9,81.6z"></path>		<path d="M273,70.7h-4.2v11.5h-2.3V70.7h-4.1v-1.9H273V70.7z"></path>		<path d="M281.1,79.1h-5.2l-1.1,3.1h-2.4l5.1-13.4h2.1l5.1,13.4h-2.4L281.1,79.1z M276.6,77.2h3.9l-1.9-5.6L276.6,77.2z"></path>		<path d="M291.1,77h-2.6v5.2h-2.3V68.8h4.7c0.8,0,1.5,0.1,2.1,0.3c0.6,0.2,1.1,0.4,1.5,0.8s0.7,0.8,0.9,1.3s0.3,1.1,0.3,1.7   c0,0.9-0.2,1.6-0.6,2.2c-0.4,0.6-1,1.1-1.8,1.4l3,5.6v0.1h-2.5L291.1,77z M288.5,75.2h2.4c0.4,0,0.8-0.1,1.1-0.2   c0.3-0.1,0.6-0.3,0.8-0.5c0.2-0.2,0.4-0.4,0.5-0.7c0.1-0.3,0.2-0.6,0.2-0.9c0-0.3,0-0.7-0.1-0.9c-0.1-0.3-0.2-0.5-0.5-0.7   s-0.5-0.4-0.8-0.5c-0.3-0.1-0.7-0.2-1.1-0.2h-2.4V75.2z"></path>		<path d="M297.9,82.2V68.8h4c0.9,0,1.7,0.2,2.5,0.5c0.7,0.3,1.4,0.7,1.9,1.3s0.9,1.2,1.2,2c0.3,0.8,0.4,1.7,0.4,2.6v0.7   c0,1-0.1,1.8-0.4,2.6c-0.3,0.8-0.7,1.4-1.2,2s-1.2,1-1.9,1.3c-0.8,0.3-1.6,0.5-2.5,0.5H297.9z M300.2,70.7v9.7h1.5   c0.6,0,1.2-0.1,1.7-0.3c0.5-0.2,0.9-0.5,1.2-0.9c0.3-0.4,0.6-0.9,0.7-1.4c0.2-0.6,0.2-1.2,0.2-1.9v-0.7c0-1.5-0.3-2.6-0.9-3.3   c-0.6-0.8-1.5-1.1-2.8-1.1H300.2z"></path>		<path d="M318,76.2h-5.5v4.1h6.4v1.9h-8.8V68.8h8.7v1.9h-6.4v3.7h5.5V76.2z"></path>		<path d="M331.5,75.8c0,1-0.1,1.9-0.4,2.7c-0.3,0.8-0.6,1.5-1.1,2.1c-0.5,0.6-1.1,1-1.7,1.3c-0.7,0.3-1.4,0.5-2.3,0.5   c-0.8,0-1.6-0.2-2.3-0.5c-0.7-0.3-1.3-0.7-1.8-1.3c-0.5-0.6-0.9-1.2-1.1-2.1c-0.3-0.8-0.4-1.7-0.4-2.7v-0.7c0-1,0.1-1.9,0.4-2.7   c0.3-0.8,0.7-1.5,1.1-2.1c0.5-0.6,1.1-1,1.8-1.3c0.7-0.3,1.4-0.5,2.3-0.5c0.8,0,1.6,0.2,2.3,0.5c0.7,0.3,1.3,0.7,1.8,1.3   c0.5,0.6,0.9,1.2,1.1,2.1s0.4,1.7,0.4,2.7V75.8z M329.2,75.1c0-0.7-0.1-1.4-0.2-2c-0.1-0.6-0.4-1.1-0.6-1.4   c-0.3-0.4-0.6-0.7-1-0.9s-0.9-0.3-1.4-0.3c-0.5,0-0.9,0.1-1.3,0.3c-0.4,0.2-0.7,0.5-1,0.9c-0.3,0.4-0.5,0.9-0.6,1.4   s-0.2,1.2-0.2,2v0.7c0,0.7,0.1,1.4,0.2,2s0.4,1.1,0.6,1.4c0.3,0.4,0.6,0.7,1,0.9c0.4,0.2,0.9,0.3,1.3,0.3c1,0,1.8-0.4,2.4-1.2   c0.6-0.8,0.8-1.9,0.8-3.4V75.1z"></path>	</g></g></svg>